<svg height="512pt" viewBox="0 -46 512.00308 512" width="512pt" xmlns="http://www.w3.org/2000/svg"><path d="m440 348.441406c-39.703125 0-72-32.296875-72-72 0-4.425781 3.578125-8 8-8 4.425781 0 8 3.574219 8 8 0 30.871094 25.128906 56 56 56 30.875 0 56-25.128906 56-56 0-4.425781 3.578125-8 8-8 4.425781 0 8 3.574219 8 8 0 39.703125-32.292969 72-72 72zm0 0"/><path d="m504 284.441406h-128c-4.421875 0-8-3.574218-8-8 0-4.425781 3.578125-8 8-8h128c4.425781 0 8 3.574219 8 8 0 4.425782-3.574219 8-8 8zm0 0"/><path d="m504 284.441406c-3.382812 0-6.527344-2.167968-7.613281-5.550781l-64.210938-200.144531c-1.351562-4.207032.96875-8.710938 5.171875-10.066406 4.230469-1.34375 8.71875.96875 10.0625 5.167968l64.207032 200.144532c1.351562 4.210937-.96875 8.714843-5.167969 10.066406-.816407.253906-1.640625.382812-2.449219.382812zm0 0"/><path d="m376 284.441406c-.804688 0-1.621094-.121094-2.429688-.375-4.207031-1.34375-6.527343-5.839844-5.191406-10.058594l63.789063-200.140624c1.347656-4.203126 5.851562-6.539063 10.058593-5.195313 4.207032 1.34375 6.527344 5.839844 5.191407 10.058594l-63.792969 200.144531c-1.085938 3.398438-4.230469 5.566406-7.625 5.566406zm0 0"/><path d="m72 348.441406c-39.703125 0-72-32.296875-72-72 0-4.425781 3.578125-8 8-8 4.425781 0 8 3.574219 8 8 0 30.871094 25.128906 56 56 56 30.875 0 56-25.128906 56-56 0-4.425781 3.578125-8 8-8 4.425781 0 8 3.574219 8 8 0 39.703125-32.292969 72-72 72zm0 0"/><path d="m136 284.441406h-128c-4.421875 0-8-3.574218-8-8 0-4.425781 3.578125-8 8-8h128c4.425781 0 8 3.574219 8 8 0 4.425782-3.574219 8-8 8zm0 0"/><path d="m136 284.441406c-3.382812 0-6.527344-2.167968-7.613281-5.550781l-64.21875-200.144531c-1.351563-4.207032.96875-8.710938 5.167969-10.066406 4.21875-1.34375 8.722656.96875 10.066406 5.167968l64.207031 200.144532c1.351563 4.210937-.96875 8.714843-5.167969 10.066406-.808594.253906-1.632812.382812-2.441406.382812zm0 0"/><path d="m8 284.441406c-.804688 0-1.621094-.121094-2.429688-.375-4.207031-1.34375-6.527343-5.839844-5.191406-10.058594l63.789063-200.132812c1.347656-4.203125 5.867187-6.539062 10.058593-5.195312 4.207032 1.347656 6.527344 5.84375 5.191407 10.058593l-63.792969 200.136719c-1.085938 3.398438-4.230469 5.566406-7.625 5.566406zm0 0"/><path d="m335.882812 36c-4.425781 0-8-3.574219-8-8 0-6.613281-5.378906-12-11.984374-12-6.625 0-12.015626 5.386719-12.015626 12 0 4.425781-3.578124 8-8 8-4.425781 0-8-3.574219-8-8 0-15.4375 12.566407-28 28.015626-28 15.429687 0 27.984374 12.5625 27.984374 28 0 4.425781-3.578124 8-8 8zm0 0"/><path d="m295.808594 36c-4.421875 0-8-3.574219-8-8 0-6.613281-5.382813-12-12-12-6.621094 0-12.015625 5.386719-12.015625 12 0 4.425781-3.574219 8-8 8-4.421875 0-8-3.574219-8-8 0-15.4375 12.570312-28 28.015625-28 15.441406 0 28 12.5625 28 28 0 4.425781-3.582032 8-8 8zm0 0"/><path d="m255.945312 36c-4.421874 0-8-3.574219-8-8 0-6.613281-5.382812-12-12-12-6.625 0-12.015624 5.386719-12.015624 12 0 4.425781-3.574219 8-8 8-4.425782 0-8-3.574219-8-8 0-15.4375 12.566406-28 28.015624-28 15.441407 0 28 12.5625 28 28 0 4.425781-3.574218 8-8 8zm0 0"/><path d="m235.960938 84.113281c-15.445313 0-28.015626-12.558593-28.015626-28 0-4.421875 3.578126-8 8-8 4.425782 0 8 3.578125 8 8 0 6.617188 5.390626 12 12.015626 12 6.617187 0 12-5.382812 12-12 0-4.421875 3.578124-8 8-8 4.425781 0 8 3.578125 8 8 0 15.441407-12.558594 28-28 28zm0 0"/><path d="m195.929688 84.113281c-15.449219 0-28.015626-12.558593-28.015626-28 0-4.421875 3.574219-8 8-8 4.421876 0 8 3.578125 8 8 0 6.617188 5.390626 12 12.015626 12 6.617187 0 12-5.382812 12-12 0-4.421875 3.574218-8 8-8 4.425781 0 8 3.578125 8 8 0 15.441407-12.558594 28-28 28zm0 0"/><path d="m215.929688 36c-4.425782 0-8-3.574219-8-8 0-6.613281-5.382813-12-12-12-6.625 0-12.015626 5.386719-12.015626 12 0 4.425781-3.578124 8-8 8-4.425781 0-8-3.574219-8-8 0-15.4375 12.566407-28 28.015626-28 15.441406 0 28 12.5625 28 28 0 4.425781-3.574219 8-8 8zm0 0"/><path d="m275.832031 84.113281c-15.4375 0-28-12.566406-28-28.015625 0-15.433594 12.5625-27.984375 28-27.984375 4.425781 0 8 3.578125 8 8 0 4.425781-3.574219 8-8 8-6.613281 0-12 5.375-12 11.984375 0 6.625 5.386719 12.015625 12 12.015625 4.425781 0 8 3.578125 8 8 0 4.425781-3.574219 8-8 8zm0 0"/><path d="m255.898438 64.097656c-4.417969 0-8-3.574218-8-7.992187l-.015626-28.078125c0-4.425782 3.574219-8.011719 7.992188-8.011719h.007812c4.414063 0 8 3.578125 8 7.992187l.015626 28.082032c0 4.421875-3.578126 8.007812-8 8.007812zm0 0"/><path d="m215.914062 64.113281c-4.417968 0-8-3.574219-8-7.992187l-.015624-28.09375c0-4.425782 3.574218-8.011719 7.992187-8.011719h.007813c4.414062 0 8 3.578125 8 7.992187l.015624 28.097657c0 4.425781-3.578124 8.007812-8 8.007812zm0 0"/><path d="m335.898438 116.097656c-4.425782 0-8-3.574218-8-8v-80.113281c0-4.421875 3.574218-8 8-8 4.421874 0 8 3.578125 8 8v80.113281c0 4.425782-3.578126 8-8 8zm0 0"/><path d="m175.808594 116.097656c-4.421875 0-8-3.574218-8-8v-80.097656c0-4.421875 3.578125-8 8-8 4.425781 0 8 3.578125 8 8v80.097656c0 4.425782-3.582032 8-8 8zm0 0"/><path d="m335.945312 44.144531h-60.113281c-4.421875 0-8-3.574219-8-8 0-4.421875 3.578125-8 8-8h60.113281c4.425782 0 8 3.578125 8 8 0 4.425781-3.574218 8-8 8zm0 0"/><path d="m295.882812 108.082031c-4.425781 0-8-3.578125-8-8v-23.921875c0-4.421875 3.574219-8 8-8 4.421876 0 8 3.578125 8 8v23.921875c0 4.421875-3.578124 8-8 8zm0 0"/><path d="m295.882812 44.035156c-4.425781 0-8-3.578125-8-8v-8.035156c0-4.421875 3.574219-8 8-8 4.421876 0 8 3.578125 8 8v8.035156c0 4.421875-3.578124 8-8 8zm0 0"/><path d="m295.882812 84.160156h-20.050781c-4.421875 0-8-3.574218-8-8 0-4.421875 3.578125-8 8-8h20.050781c4.421876 0 8 3.578125 8 8 0 4.425782-3.578124 8-8 8zm0 0"/><path d="m215.792969 228.015625c-4.421875 0-8-3.582031-8-8l.015625-42.796875c0-4.425781 3.585937-8 8-8 4.425781 0 8 3.582031 8 8l-.015625 42.796875c0 4.425781-3.589844 8-8 8zm0 0"/><path d="m295.867188 228.015625c-4.425782 0-8-3.582031-8-8l.015624-42.796875c0-4.425781 3.582032-8 8-8 4.421876 0 8 3.582031 8 8l-.015624 42.796875c0 4.425781-3.585938 8-8 8zm0 0"/><path d="m303.785156 228.144531h-95.96875c-4.421875 0-8-3.574219-8-8 0-4.421875 3.578125-8 8-8h95.96875c4.425782 0 8 3.578125 8 8 0 4.425781-3.582031 8-8 8zm0 0"/><path d="m207.816406 260.160156c-4.421875 0-8-3.574218-8-8v-32.015625c0-4.421875 3.578125-8 8-8 4.425782 0 8 3.578125 8 8v32.015625c0 4.425782-3.582031 8-8 8zm0 0"/><path d="m303.785156 260.160156c-4.421875 0-8-3.574218-8-8v-32.015625c0-4.421875 3.578125-8 8-8 4.425782 0 8 3.578125 8 8v32.015625c0 4.425782-3.582031 8-8 8zm0 0"/><path d="m311.761719 260.160156h-111.9375c-4.421875 0-8-3.574218-8-8 0-4.421875 3.578125-8 8-8h111.9375c4.425781 0 8 3.578125 8 8 0 4.425782-3.585938 8-8 8zm0 0"/><path d="m311.761719 420.226562c-4.425781 0-8-3.578124-8-8v-160.066406c0-4.421875 3.574219-8 8-8s8 3.578125 8 8v160.066406c0 4.414063-3.585938 8-8 8zm0 0"/><path d="m199.824219 420.226562c-4.421875 0-8-3.578124-8-8v-160.066406c0-4.421875 3.578125-8 8-8 4.425781 0 8 3.578125 8 8v160.066406c0 4.414063-3.582031 8-8 8zm0 0"/><path d="m231.792969 192.28125c-.800781 0-1.605469-.121094-2.40625-.367188-36.769531-11.601562-61.472657-45.320312-61.472657-83.914062 0-4.421875 3.574219-8 8-8 4.421876 0 8 3.578125 8 8 0 31.578125 20.199219 59.167969 50.28125 68.648438 4.207032 1.335937 6.550782 5.832031 5.222657 10.042968-1.070313 3.414063-4.230469 5.589844-7.625 5.589844zm0 0"/><path d="m279.808594 192.363281c-3.40625 0-6.558594-2.1875-7.632813-5.609375-1.316406-4.214844 1.027344-8.703125 5.242188-10.023437 30.191406-9.457031 50.488281-37.074219 50.488281-68.730469 0-4.421875 3.574219-8 8-8 4.421875 0 8 3.578125 8 8 0 38.691406-24.800781 72.449219-61.703125 83.992188-.800781.257812-1.609375.371093-2.394531.371093zm0 0"/><path d="m175.808594 52.160156h-119.773438c-4.425781 0-8-3.574218-8-8 0-4.421875 3.574219-8 8-8h119.773438c4.425781 0 8 3.578125 8 8 0 4.425782-3.582032 8-8 8zm0 0"/><path d="m175.808594 84.34375h-119.773438c-4.425781 0-8-3.574219-8-8 0-4.421875 3.574219-8 8-8h119.773438c4.425781 0 8 3.578125 8 8 0 4.425781-3.582032 8-8 8zm0 0"/><path d="m56.042969 84.160156c-13.234375 0-24.007813-10.765625-24.007813-24 0-13.230468 10.773438-24 24.007813-24 4.421875 0 8 3.578125 8 8 0 4.425782-3.578125 8-8 8-4.417969 0-8.007813 3.585938-8.007813 8 0 4.417969 3.589844 8 8.007813 8 4.421875 0 8 3.578125 8 8 0 4.425782-3.578125 8-8 8zm0 0"/><path d="m455.96875 84.34375h-119.773438c-4.425781 0-8-3.574219-8-8 0-4.421875 3.574219-8 8-8h119.773438c4.425781 0 8 3.578125 8 8 0 4.425781-3.574219 8-8 8zm0 0"/><path d="m455.96875 52.160156h-119.773438c-4.425781 0-8-3.574218-8-8 0-4.421875 3.574219-8 8-8h119.773438c4.425781 0 8 3.578125 8 8 0 4.425782-3.574219 8-8 8zm0 0"/><path d="m455.960938 84.34375c-4.421876 0-8-3.574219-8-8 0-4.421875 3.578124-8 8-8 4.417968 0 8.007812-3.582031 8.007812-8 0-4.421875-3.589844-8.015625-8.007812-8.015625-4.421876 0-8-3.574219-8-8 0-4.421875 3.578124-8 8-8 13.234374 0 24.007812 10.777344 24.007812 24.015625 0 13.242188-10.773438 24-24.007812 24zm0 0"/></svg>