<svg height="508pt" viewBox="-6 0 508 508.032" width="508pt" xmlns="http://www.w3.org/2000/svg"><path d="m8.015625 424.015625c-4.421875 0-8-3.574219-8-8 0-39.710937 32.304687-72.015625 72.015625-72.015625 4.425781 0 8 3.574219 8 8s-3.574219 8-8 8c-30.886719 0-56.015625 25.128906-56.015625 56.015625 0 4.425781-3.574219 8-8 8zm0 0"/><path d="m311.96875 368.542969c-1.359375 0-2.738281-.34375-3.992188-1.070313-8.449218-4.878906-18.121093-7.464844-27.976562-7.464844-4.425781 0-8-3.574218-8-8 0-4.421874 3.574219-8 8-8 12.671875 0 25.113281 3.320313 35.976562 9.601563 3.832032 2.214844 5.144532 7.109375 2.925782 10.925781-1.476563 2.585938-4.167969 4.007813-6.933594 4.007813zm0 0"/><path d="m104.015625 360h-31.984375c-4.421875 0-8-3.574219-8-8s3.578125-8 8-8h31.984375c4.425781 0 8 3.574219 8 8s-3.574219 8-8 8zm0 0"/><path d="m8.023438 480c-4.414063 0-8.0000005-3.574219-8.0000005-8l-.0078125-55.984375c0-4.414063 3.578125-8 8-8 4.417969 0 8 3.578125 8 8l.007813 55.984375c0 4.414062-3.574219 8-8 8zm0 0"/><path d="m16.023438 488c-8.824219 0-16.0000005-7.175781-16.0000005-16 0-4.425781 3.5781245-8 8.0000005-8 4.425781 0 8 3.574219 8 8v.015625c4.425781 0 8 3.570313 8 7.992187 0 4.417969-3.574219 7.992188-8 7.992188zm0 0"/><path d="m311.976562 488h-295.953124c-4.421876 0-8-3.574219-8-8s3.578124-8 8-8h295.953124c4.421876 0 8 3.574219 8 8s-3.578124 8-8 8zm0 0"/><path d="m120.007812 344c-4.421874 0-8-3.574219-8-8v-29.839844c0-4.425781 3.578126-8 8-8 4.425782 0 8 3.574219 8 8v29.839844c0 4.425781-3.574218 8-8 8zm0 0"/><path d="m232.007812 344c-4.421874 0-8-3.574219-8-8v-29.839844c0-4.425781 3.578126-8 8-8 4.425782 0 8 3.574219 8 8v29.839844c0 4.425781-3.574218 8-8 8zm0 0"/><path d="m132.472656 376.015625c-2.824218 0-5.550781-1.496094-7.015625-4.136719-2.136719-3.871094-.730469-8.742187 3.144531-10.871094l43.542969-24.015624c3.878907-2.128907 8.742188-.71875 10.871094 3.144531 2.136719 3.871093.726563 8.742187-3.144531 10.871093l-43.542969 24.015626c-1.222656.671874-2.550781.992187-3.855469.992187zm0 0"/><path d="m219.542969 376.015625c-1.304688 0-2.632813-.320313-3.855469-.992187l-43.542969-24.015626c-3.863281-2.136718-5.273437-7-3.144531-10.871093 2.136719-3.855469 7-5.265625 10.871094-3.144531l43.542968 24.015624c3.867188 2.136719 5.273438 7 3.144532 10.871094-1.453125 2.640625-4.191406 4.136719-7.015625 4.136719zm0 0"/><path d="m88.007812 376.015625c-2.046874 0-4.097656-.785156-5.65625-2.34375-3.128906-3.128906-3.128906-8.183594 0-11.3125l32-32.015625c3.128907-3.128906 8.183594-3.128906 11.3125 0 3.128907 3.128906 3.128907 8.183594 0 11.3125l-32 32.015625c-1.558593 1.558594-3.609374 2.34375-5.65625 2.34375zm0 0"/><path d="m120.007812 408c-2.046874 0-4.097656-.785156-5.65625-2.34375l-32-31.984375c-3.128906-3.128906-3.128906-8.183594 0-11.3125 3.128907-3.128906 8.183594-3.128906 11.3125 0l32 31.984375c3.128907 3.128906 3.128907 8.183594 0 11.3125-1.558593 1.558594-3.609374 2.34375-5.65625 2.34375zm0 0"/><path d="m104.007812 424c-2.046874 0-4.097656-.785156-5.65625-2.34375-3.128906-3.128906-3.128906-8.183594 0-11.3125l16-16c3.128907-3.128906 8.183594-3.128906 11.3125 0 3.128907 3.128906 3.128907 8.183594 0 11.3125l-16 16c-1.558593 1.558594-3.609374 2.34375-5.65625 2.34375zm0 0"/><path d="m152.015625 488c-2.441406 0-4.832031-1.105469-6.40625-3.199219l-48-64c-2.65625-3.527343-1.9375-8.542969 1.597656-11.191406 3.527344-2.65625 8.546875-1.945313 11.191407 1.597656l48 64c2.65625 3.527344 1.9375 8.546875-1.597657 11.191407-1.433593 1.082031-3.113281 1.601562-4.785156 1.601562zm0 0"/><path d="m176.007812 488c-3.199218 0-6.222656-1.9375-7.457031-5.105469l-56-144c-1.597656-4.117187.441407-8.75 4.554688-10.351562 4.117187-1.605469 8.757812.441406 10.351562 4.554687l56 144c1.597657 4.117188-.441406 8.75-4.554687 10.351563-.949219.382812-1.925782.550781-2.894532.550781zm0 0"/><path d="m264.007812 376.015625c-2.046874 0-4.097656-.785156-5.65625-2.34375l-32-32.015625c-3.128906-3.128906-3.128906-8.183594 0-11.3125 3.128907-3.128906 8.183594-3.128906 11.3125 0l32 32.015625c3.128907 3.128906 3.128907 8.183594 0 11.3125-1.558593 1.558594-3.609374 2.34375-5.65625 2.34375zm0 0"/><path d="m232.007812 408c-2.046874 0-4.097656-.785156-5.65625-2.34375-3.128906-3.128906-3.128906-8.183594 0-11.3125l32-31.984375c3.128907-3.128906 8.183594-3.128906 11.3125 0 3.128907 3.128906 3.128907 8.183594 0 11.3125l-32 31.984375c-1.558593 1.558594-3.609374 2.34375-5.65625 2.34375zm0 0"/><path d="m248.007812 424c-2.046874 0-4.097656-.785156-5.65625-2.34375l-16-16c-3.128906-3.128906-3.128906-8.183594 0-11.3125 3.128907-3.128906 8.183594-3.128906 11.3125 0l16 16c3.128907 3.128906 3.128907 8.183594 0 11.3125-1.558593 1.558594-3.609374 2.34375-5.65625 2.34375zm0 0"/><path d="m200 488c-1.671875 0-3.351562-.519531-4.792969-1.601562-3.535156-2.644532-4.253906-7.664063-1.597656-11.191407l48-64c2.648437-3.535156 7.671875-4.238281 11.191406-1.597656 3.535157 2.648437 4.253907 7.664063 1.597657 11.191406l-48 64c-1.558594 2.09375-3.957032 3.199219-6.398438 3.199219zm0 0"/><path d="m176.007812 488c-.96875 0-1.945312-.167969-2.894531-.542969-4.121093-1.601562-6.160156-6.234375-4.554687-10.351562l56-144c1.59375-4.128907 6.242187-6.167969 10.351562-4.554688 4.121094 1.601563 6.160156 6.234375 4.554688 10.351563l-56 144c-1.234375 3.160156-4.257813 5.097656-7.457032 5.097656zm0 0"/><path d="m280 360.015625h-31.992188c-4.421874 0-8-3.574219-8-8 0-4.421875 3.578126-8 8-8h31.992188c4.425781 0 8 3.578125 8 8 0 4.425781-3.574219 8-8 8zm0 0"/><path d="m151.121094 424c-1.042969 0-2.097656-.199219-3.113282-.632812-4.070312-1.71875-5.976562-6.414063-4.253906-10.480469l16.886719-39.984375c1.71875-4.070313 6.414063-5.980469 10.480469-4.253906 4.070312 1.71875 5.976562 6.414062 4.253906 10.480468l-16.886719 39.984375c-1.296875 3.054688-4.257812 4.886719-7.367187 4.886719zm0 0"/><path d="m200.894531 424c-3.117187 0-6.078125-1.832031-7.367187-4.886719l-16.886719-40c-1.71875-4.074219.183594-8.761719 4.253906-10.480469 4.066407-1.710937 8.761719.183594 10.480469 4.253907l16.890625 40c1.71875 4.074219-.1875 8.761719-4.257813 10.480469-1.015624.433593-2.070312.632812-3.113281.632812zm0 0"/><path d="m184.007812 384.015625h-16c-4.421874 0-8-3.574219-8-8 0-4.421875 3.578126-8 8-8h16c4.425782 0 8 3.578125 8 8 0 4.425781-3.574218 8-8 8zm0 0"/><path d="m184.007812 384.015625c-1.832031 0-3.679687-.625-5.183593-1.910156-3.367188-2.859375-3.769531-7.914063-.894531-11.273438l16-18.785156c2.863281-3.367187 7.910156-3.773437 11.269531-.894531 3.367187 2.855468 3.769531 7.910156.898437 11.273437l-16 18.78125c-1.585937 1.855469-3.832031 2.808594-6.089844 2.808594zm0 0"/><path d="m168.007812 384.015625c-2.253906 0-4.503906-.953125-6.085937-2.816406l-16-18.785157c-2.867187-3.359374-2.472656-8.414062.894531-11.269531 3.359375-2.871093 8.40625-2.472656 11.273438.894531l16 18.785157c2.863281 3.359375 2.46875 8.414062-.898438 11.273437-1.503906 1.292969-3.351562 1.917969-5.183594 1.917969zm0 0"/><path d="m176.007812 328c-70.574218 0-128-57.425781-128-128 0-4.425781 3.578126-8 8-8 4.425782 0 8 3.574219 8 8 0 61.761719 50.238282 112 112 112 61.761719 0 112-50.238281 112-112 0-4.425781 3.578126-8 8-8 4.425782 0 8 3.574219 8 8 0 70.574219-57.421874 128-128 128zm0 0"/><path d="m56.007812 208c-4.421874 0-8-3.574219-8-8v-88c0-4.425781 3.578126-8 8-8 4.425782 0 8 3.574219 8 8v88c0 4.425781-3.574218 8-8 8zm0 0"/><path d="m296.007812 208c-4.421874 0-8-3.574219-8-8v-95.984375c0-4.421875 3.578126-8 8-8 4.425782 0 8 3.578125 8 8v95.984375c0 4.425781-3.574218 8-8 8zm0 0"/><path d="m296.007812 112.015625c-4.421874 0-8-3.574219-8-8 0-26.472656-21.527343-48-48-48-4.421874 0-8-3.574219-8-8 0-4.421875 3.578126-8 8-8 35.289063 0 64 28.710937 64 64 0 4.425781-3.574218 8-8 8zm0 0"/><path d="m240.007812 56.015625c-4.421874 0-8-3.574219-8-8v-40.015625c0-4.425781 3.578126-8 8-8 4.425782 0 8 3.574219 8 8v40.015625c0 4.425781-3.574218 8-8 8zm0 0"/><path d="m240.007812 16h-80c-4.421874 0-8-3.574219-8-8s3.578126-8 8-8h80c4.425782 0 8 3.574219 8 8s-3.574218 8-8 8zm0 0"/><path d="m56.007812 120c-4.421874 0-8-3.574219-8-8 0-61.761719 50.238282-112 112-112 4.425782 0 8 3.574219 8 8s-3.574218 8-8 8c-52.9375 0-96 43.0625-96 96 0 4.425781-3.574218 8-8 8zm0 0"/><path d="m296.007812 160c-2.046874 0-4.097656-.785156-5.65625-2.34375l-32-32c-3.128906-3.128906-3.128906-8.183594 0-11.3125 3.128907-3.128906 8.183594-3.128906 11.3125 0l32 32c3.128907 3.128906 3.128907 8.183594 0 11.3125-1.558593 1.558594-3.609374 2.34375-5.65625 2.34375zm0 0"/><path d="m176.007812 152c-49.648437 0-90.40625-24.121094-92.121093-25.144531-3.78125-2.269531-5.007813-7.175781-2.742188-10.96875 2.261719-3.773438 7.160157-5.023438 10.96875-2.757813.382813.230469 38.808594 22.863282 83.886719 22.863282s83.503906-22.632813 83.886719-22.863282c3.816406-2.265625 8.707031-1.015625 10.96875 2.757813 2.265625 3.792969 1.039062 8.699219-2.742188 10.96875-1.699219 1.023437-42.457031 25.144531-92.105469 25.144531zm0 0"/><path d="m56.007812 160c-2.046874 0-4.097656-.785156-5.65625-2.34375-3.128906-3.128906-3.128906-8.183594 0-11.3125l32-32c3.128907-3.128906 8.183594-3.128906 11.3125 0 3.128907 3.128906 3.128907 8.183594 0 11.3125l-32 32c-1.558593 1.558594-3.609374 2.34375-5.65625 2.34375zm0 0"/><path d="m336.0625 347.953125c-17.679688 0-32.0625-14.386719-32.0625-32.066406 0-17.679688 14.382812-32.0625 32.0625-32.0625 4.425781 0 8 3.574219 8 8 0 4.421875-3.574219 8-8 8-8.855469 0-16.0625 7.199219-16.0625 16.0625 0 8.867187 7.199219 16.066406 16.0625 16.066406 4.425781 0 8 3.574219 8 8 0 4.421875-3.574219 8-8 8zm0 0"/><path d="m488 299.832031h-151.9375c-4.421875 0-8-3.574219-8-8s3.578125-8 8-8h151.9375c4.425781 0 8 3.574219 8 8s-3.574219 8-8 8zm0 0"/><path d="m488 347.953125h-151.9375c-4.421875 0-8-3.578125-8-8 0-4.425781 3.578125-8 8-8h151.9375c4.425781 0 8 3.574219 8 8 0 4.421875-3.574219 8-8 8zm0 0"/><path d="m336.0625 508.03125c-17.679688 0-32.0625-14.382812-32.0625-32.0625 0-4.425781 3.574219-8 8-8s8 3.574219 8 8c0 8.855469 7.199219 16.0625 16.0625 16.0625 4.425781 0 8 3.578125 8 8 0 4.425781-3.574219 8-8 8zm0 0"/><path d="m488 508.03125h-151.9375c-4.421875 0-8-3.574219-8-8 0-4.421875 3.578125-8 8-8h151.9375c4.425781 0 8 3.578125 8 8 0 4.425781-3.574219 8-8 8zm0 0"/><path d="m480.007812 347.953125c-4.421874 0-8-3.578125-8-8v-48.128906c0-4.425781 3.578126-8 8-8 4.425782 0 8 3.574219 8 8v48.128906c0 4.421875-3.574218 8-8 8zm0 0"/><path d="m312 483.96875c-4.425781 0-8-3.578125-8-8v-160.082031c0-4.421875 3.574219-8 8-8s8 3.578125 8 8v160.082031c0 4.421875-3.574219 8-8 8zm0 0"/><path d="m488 508.03125c-4.425781 0-8-3.574219-8-8v-160.078125c0-4.425781 3.574219-8 8-8s8 3.574219 8 8v160.078125c0 4.425781-3.574219 8-8 8zm0 0"/><path d="m431.976562 467.96875h-64c-4.425781 0-8-3.578125-8-8 0-4.425781 3.574219-8 8-8h64c4.421876 0 8 3.574219 8 8 0 4.421875-3.578124 8-8 8zm0 0"/><path d="m399.976562 467.96875c-4.425781 0-8-3.578125-8-8v-80c0-4.425781 3.574219-8 8-8 4.421876 0 8 3.574219 8 8v80c0 4.421875-3.578124 8-8 8zm0 0"/><path d="m431.976562 395.96875h-64c-4.425781 0-8-3.578125-8-8 0-4.425781 3.574219-8 8-8h64c4.421876 0 8 3.574219 8 8 0 4.421875-3.578124 8-8 8zm0 0"/><path d="m439.976562 419.96875h-16c-4.425781 0-8-3.578125-8-8 0-4.425781 3.574219-8 8-8h16c4.421876 0 8 3.574219 8 8 0 4.421875-3.578124 8-8 8zm0 0"/><path d="m375.976562 419.96875h-16c-4.425781 0-8-3.578125-8-8 0-4.425781 3.574219-8 8-8h16c4.421876 0 8 3.574219 8 8 0 4.421875-3.578124 8-8 8zm0 0"/></svg>